# xmcd CD database file
#
# Track frame offsets:
#	225
#	15648
#	32302
#	46524
#	63823
#	87731
#	105313
#	121249
#	134534
#	148837
#	164675
#	181554
#	198281
#	214538
#	232713
#	246161
#	266774
#	283111
#	297253
#	310757
#	327948
#	342103
#
# Disc length: 4742 seconds
#
# Revision: 0
# Processed by: cddbd v1.5.2PL0 Copyright (c) Steve Scherf et al.
# Submitted via: CDex 1.51
#
DISCID=32128316
DTITLE=Archie Semple - Night People and Easy Living
DYEAR=1962
DGENRE=Jazz
TTITLE0=Carolina Moon
TTITLE1=Premier Bal
TTITLE2=Lady Sings the Blues
TTITLE3=I'll Get By
TTITLE4=Night People
TTITLE5=After My Laughter Came Tears
TTITLE6=Solitariness
TTITLE7=Mean to Me
TTITLE8=Summer is a-Comin' in
TTITLE9=Sorry, Norrie
TTITLE10=Just another Day
TTITLE11=Easy Living
TTITLE12=That Old Feeling
TTITLE13=Last Spring
TTITLE14=I Get Along without You Very Well
TTITLE15=Jenny
TTITLE16=Bye Bye Blackbird
TTITLE17=Old Folks
TTITLE18=What's New
TTITLE19=Lazy Summer
TTITLE20=Archie's Blues
TTITLE21=For all We Know
EXTD=YEAR: 1962
EXTT0=
EXTT1=
EXTT2=
EXTT3=
EXTT4=
EXTT5=
EXTT6=
EXTT7=
EXTT8=
EXTT9=
EXTT10=
EXTT11=
EXTT12=
EXTT13=
EXTT14=
EXTT15=
EXTT16=
EXTT17=
EXTT18=
EXTT19=
EXTT20=
EXTT21=
PLAYORDER=
